PathFileType  4	(X/Y/Z) C:\Inversekin\DARPA\DARPA11\Files_W_HJCs\
DataRate	CameraRate	NumFrames	NumMarkers	Units	OrigDataRate	OrigDataStartFrame	OrigNumFrames
  100.0		  100.0		    11		     41		 mm	  100.0	      77	    153
Frame#	Time	R.Shoulder			L.Shoulder			R.Clavicle			L.Clavicle			R.Biceps			R.Elbow			R.Forearm			R.Wrist			L.Biceps			L.Elbow			L.Forearm			L.Wrist			R.ASIS			L.ASIS			R.PSIS			S2			L.PSIS			R.TH1			R.TH2			R.TH3			R.Knee			R.SH1			R.SH2			R.SH3			R.SH4			R.Ankle			R.Heel			R.MT5			R.Toe			L.TH1			L.TH2			L.TH3			L.TH4			L.Knee			L.SH1			L.SH2			L.SH3			L.Ankle			L.Heel			L.MT5			L.Toe			
		X1	Y1	Z1	X2	Y2	Z2	X3	Y3	Z3	X4	Y4	Z4	X5	Y5	Z5	X6	Y6	Z6	X7	Y7	Z7	X8	Y8	Z8	X9	Y9	Z9	X10	Y10	Z10	X11	Y11	Z11	X12	Y12	Z12	X13	Y13	Z13	X14	Y14	Z14	X15	Y15	Z15	X16	Y16	Z16	X17	Y17	Z17	X18	Y18	Z18	X19	Y19	Z19	X20	Y20	Z20	X21	Y21	Z21	X22	Y22	Z22	X23	Y23	Z23	X24	Y24	Z24	X25	Y25	Z25	X26	Y26	Z26	X27	Y27	Z27	X28	Y28	Z28	X29	Y29	Z29	X30	Y30	Z30	X31	Y31	Z31	X32	Y32	Z32	X33	Y33	Z33	X34	Y34	Z34	X35	Y35	Z35	X36	Y36	Z36	X37	Y37	Z37	X38	Y38	Z38	X39	Y39	Z39	X40	Y40	Z40	X41	Y41	Z41	

77	0.76000	409.431	1564.481	-299.994	678.557	1568.336	-288.547	508.963	1507.414	-193.206	564.513	1508.934	-189.175	203.826	1571.235	-317.178	116.485	1598.713	-365.426	111.197	1583.050	-214.131	99.710	1562.802	-100.191	859.907	1543.653	-311.254	980.964	1542.810	-325.186	993.253	1571.413	-182.952	992.398	1578.516	-72.077	407.261	1021.966	-159.762	663.003	1011.901	-173.885	479.945	1036.098	-374.284	522.881	1014.762	-390.573	571.619	1033.935	-379.350	314.366	795.678	-206.162	310.540	790.719	-315.045	323.000	662.210	-318.913	325.871	529.022	-277.255	308.199	437.337	-267.759	288.716	326.569	-274.371	305.911	438.311	-351.906	293.696	318.852	-359.030	294.830	113.931	-314.015	337.476	37.592	-391.028	252.335	34.026	-201.103	350.653	56.112	-91.536	707.530	792.958	-169.157	700.351	661.715	-182.954	752.594	811.079	-264.760	735.017	678.910	-295.078	711.046	531.854	-294.431	716.963	426.852	-272.366	740.114	445.774	-364.825	747.673	330.007	-379.548	753.216	115.824	-331.409	706.644	36.221	-416.500	801.638	39.609	-230.951	712.577	57.960	-120.658
78	0.77000	409.267	1564.561	-299.832	678.540	1568.471	-288.487	508.850	1507.408	-193.091	564.400	1508.888	-189.059	203.827	1571.224	-316.991	116.385	1598.674	-365.291	111.254	1582.936	-213.926	99.707	1562.616	-99.999	859.808	1543.784	-311.251	980.919	1542.901	-325.146	993.150	1571.076	-182.841	992.017	1577.903	-71.926	407.263	1021.927	-159.771	662.983	1011.993	-173.918	479.851	1036.217	-374.342	522.852	1014.880	-390.623	571.573	1034.121	-379.401	314.363	795.702	-206.179	310.504	790.740	-315.060	322.991	662.177	-318.931	325.933	528.978	-277.319	308.224	437.363	-267.768	288.724	326.603	-274.407	305.920	438.337	-351.927	293.776	318.863	-359.067	294.822	113.890	-314.042	337.324	37.676	-390.995	252.329	33.985	-201.116	350.622	56.193	-91.540	707.489	793.077	-169.191	700.323	661.831	-182.998	752.573	811.205	-264.808	735.007	679.066	-295.121	711.045	531.991	-294.457	716.846	426.999	-272.380	740.190	445.868	-364.828	747.742	330.183	-379.611	753.304	115.855	-331.421	706.595	36.366	-416.535	801.586	39.721	-230.959	712.554	58.065	-120.660
79	0.78000	409.405	1564.673	-299.662	678.538	1568.575	-288.428	508.797	1507.391	-192.943	564.301	1508.860	-188.952	203.658	1571.126	-316.863	116.344	1598.504	-365.168	111.140	1582.792	-213.749	99.704	1562.545	-99.853	859.786	1543.792	-311.258	980.892	1542.870	-325.097	992.965	1570.677	-182.698	992.049	1577.304	-71.843	407.284	1021.940	-159.795	662.991	1012.043	-173.986	479.980	1036.274	-374.394	522.894	1014.987	-390.670	571.581	1034.262	-379.443	314.367	795.769	-206.203	310.512	790.716	-315.074	323.121	662.127	-319.003	325.939	529.016	-277.369	308.191	437.329	-267.796	288.752	326.608	-274.428	305.903	438.324	-351.946	293.759	318.791	-359.063	294.823	113.861	-314.053	337.268	37.790	-390.991	252.350	33.975	-201.112	350.600	56.297	-91.533	707.449	793.124	-169.251	700.324	661.851	-183.063	752.573	811.337	-264.871	734.999	679.130	-295.201	711.066	532.089	-294.500	716.912	427.035	-272.422	740.024	445.926	-364.937	747.723	330.276	-379.661	753.258	115.954	-331.411	706.560	36.497	-416.530	801.564	39.791	-230.940	712.532	58.141	-120.658
80	0.79000	409.323	1564.814	-299.488	678.528	1568.733	-288.360	508.689	1507.338	-192.841	564.517	1508.947	-188.855	203.688	1570.959	-316.709	116.259	1598.385	-365.053	111.155	1582.696	-213.548	99.696	1562.418	-99.676	859.823	1543.752	-311.255	980.926	1542.812	-325.090	992.831	1570.136	-182.687	991.891	1576.559	-71.800	407.338	1021.972	-159.787	662.990	1012.076	-174.034	479.862	1036.407	-374.428	522.901	1015.121	-390.729	571.555	1034.350	-379.483	314.383	795.749	-206.218	310.500	790.694	-315.104	323.128	662.110	-319.034	325.954	529.049	-277.402	308.211	437.366	-267.803	288.665	326.658	-274.484	305.928	438.398	-351.960	293.750	318.786	-359.085	294.800	113.850	-314.074	337.285	37.818	-390.997	252.352	33.979	-201.131	350.607	56.326	-91.533	707.415	793.095	-169.358	700.260	661.914	-183.148	752.562	811.333	-264.922	735.422	679.315	-295.343	711.060	532.110	-294.567	716.818	427.029	-272.497	740.018	445.892	-364.989	747.740	330.245	-379.684	753.248	115.974	-331.414	706.648	36.546	-416.539	801.543	39.866	-230.913	712.498	58.141	-120.658
81	0.80000	409.338	1564.810	-299.379	678.628	1568.729	-288.259	508.715	1507.319	-192.758	564.447	1508.917	-188.724	203.629	1570.878	-316.578	116.222	1598.307	-364.955	111.258	1582.590	-213.401	99.805	1562.389	-99.523	859.864	1543.728	-311.254	980.924	1542.746	-325.080	992.679	1569.693	-182.621	991.788	1575.875	-71.676	407.372	1022.022	-159.783	663.031	1011.999	-174.109	479.929	1036.385	-374.462	522.987	1015.155	-390.760	571.607	1034.325	-379.518	314.383	795.696	-206.252	310.514	790.737	-315.124	323.204	662.068	-319.084	325.949	529.079	-277.445	308.104	437.442	-267.849	288.685	326.718	-274.507	306.002	438.334	-352.023	293.767	318.794	-359.092	294.819	113.869	-314.081	337.266	37.864	-391.005	252.356	34.039	-201.139	350.615	56.361	-91.525	707.519	793.004	-169.455	700.336	661.900	-183.265	752.745	811.336	-265.017	735.595	679.263	-295.473	711.132	532.225	-294.631	716.948	427.035	-272.627	740.011	445.909	-365.034	747.735	330.247	-379.735	753.250	115.992	-331.432	706.670	36.517	-416.533	801.555	39.843	-230.943	712.549	58.167	-120.666
82	0.81000	409.392	1564.897	-299.236	678.634	1568.712	-288.203	508.832	1507.295	-192.660	564.470	1508.853	-188.625	203.589	1570.864	-316.416	116.214	1598.127	-364.813	111.218	1582.553	-213.269	99.879	1562.370	-99.380	859.871	1543.568	-311.267	981.027	1542.480	-325.051	992.699	1569.328	-182.607	991.746	1575.405	-71.689	407.393	1021.992	-159.841	663.082	1011.936	-174.162	479.966	1036.464	-374.493	522.954	1015.185	-390.799	571.575	1034.330	-379.559	314.396	795.764	-206.263	310.531	790.760	-315.140	323.223	662.089	-319.095	325.974	529.079	-277.474	308.132	437.487	-267.862	288.705	326.719	-274.514	306.018	438.366	-352.040	293.762	318.812	-359.118	294.895	113.880	-314.117	337.346	37.818	-391.005	252.351	34.062	-201.140	350.662	56.325	-91.527	707.571	792.976	-169.585	700.391	661.842	-183.327	752.741	811.381	-265.108	735.603	679.202	-295.560	711.116	532.188	-294.692	716.974	427.002	-272.669	740.022	445.849	-365.082	747.775	330.125	-379.760	753.279	115.882	-331.438	706.705	36.471	-416.535	801.586	39.739	-230.956	712.623	58.119	-120.658
83	0.82000	409.423	1564.972	-299.137	678.617	1568.672	-288.126	508.908	1507.328	-192.583	564.498	1508.824	-188.538	203.646	1570.813	-316.314	116.248	1598.009	-364.663	111.235	1582.578	-213.170	99.873	1562.352	-99.240	859.898	1543.349	-311.303	981.009	1542.274	-325.067	992.736	1569.059	-182.582	991.669	1574.830	-71.647	407.458	1022.028	-159.832	663.144	1011.802	-174.265	479.997	1036.376	-374.523	523.022	1015.115	-390.820	571.621	1034.231	-379.596	314.403	795.772	-206.278	310.539	790.776	-315.164	323.188	662.190	-319.090	325.984	529.154	-277.511	308.140	437.520	-267.878	288.717	326.762	-274.532	306.028	438.435	-352.063	293.695	318.852	-359.111	294.885	113.885	-314.108	337.417	37.838	-390.998	252.360	34.062	-201.139	350.755	56.233	-91.539	707.779	792.942	-169.754	700.442	661.766	-183.398	752.752	811.219	-265.197	735.412	678.964	-295.712	711.097	531.952	-294.753	717.009	426.845	-272.753	740.006	445.676	-365.192	747.813	330.043	-379.789	753.333	115.789	-331.419	706.800	36.372	-416.511	801.621	39.654	-230.963	712.653	58.107	-120.661
84	0.83000	409.610	1564.953	-299.058	678.538	1568.562	-288.107	508.970	1507.300	-192.532	564.626	1508.738	-188.513	203.661	1570.811	-316.210	116.276	1597.937	-364.512	111.343	1582.660	-213.033	99.965	1562.342	-99.082	859.940	1543.145	-311.336	981.061	1542.068	-325.093	992.900	1568.801	-182.559	991.553	1574.223	-71.628	407.511	1021.963	-159.820	663.207	1011.684	-174.349	480.140	1036.319	-374.545	522.997	1015.009	-390.851	571.594	1034.111	-379.682	314.429	795.794	-206.274	310.553	790.868	-315.170	323.273	662.172	-319.140	325.989	529.116	-277.543	308.153	437.532	-267.890	288.730	326.818	-274.539	306.034	438.386	-352.088	293.696	318.817	-359.124	294.922	113.925	-314.097	337.490	37.741	-391.005	252.343	34.091	-201.122	350.790	56.164	-91.505	707.905	792.933	-169.861	700.499	661.722	-183.465	752.605	811.020	-265.341	735.413	678.852	-295.770	711.111	531.797	-294.802	717.059	426.765	-272.802	740.087	445.609	-365.267	747.873	329.891	-379.818	753.236	115.741	-331.459	706.801	36.224	-416.515	801.684	39.476	-230.981	712.790	58.043	-120.661
85	0.84000	409.521	1564.976	-298.947	678.538	1568.474	-288.101	508.086	1507.401	-190.960	564.739	1508.701	-188.486	203.683	1570.825	-316.122	116.276	1597.950	-364.377	111.251	1582.675	-212.903	100.019	1562.401	-98.909	859.983	1542.959	-311.419	981.145	1541.814	-325.101	993.030	1568.424	-182.561	991.768	1573.670	-71.586	407.577	1021.979	-159.820	663.280	1011.554	-174.472	480.146	1036.269	-374.562	523.011	1014.856	-390.886	571.624	1034.043	-379.735	314.440	795.741	-206.279	310.558	790.862	-315.181	323.266	662.258	-319.132	325.998	529.108	-277.567	308.159	437.507	-267.906	288.724	326.802	-274.543	306.062	438.436	-352.111	293.714	318.879	-359.137	294.865	113.990	-314.030	337.634	37.673	-391.009	252.337	34.084	-201.112	350.856	55.989	-91.502	707.956	792.854	-169.965	700.566	661.627	-183.573	752.642	810.960	-265.447	735.404	678.688	-295.871	711.101	531.716	-294.876	717.102	426.673	-272.854	740.142	445.440	-365.377	747.923	329.777	-379.854	753.196	115.631	-331.472	706.847	36.131	-416.501	801.703	39.400	-230.988	712.792	57.934	-120.677
86	0.85000	409.622	1564.899	-298.886	678.531	1568.387	-288.112	508.171	1507.360	-190.915	564.895	1508.598	-188.507	203.686	1570.846	-316.026	116.249	1597.967	-364.214	111.278	1582.722	-212.817	100.013	1562.476	-98.759	859.845	1542.751	-311.510	981.140	1541.593	-325.107	992.954	1567.993	-182.507	991.960	1573.126	-71.569	407.558	1021.874	-159.840	663.338	1011.548	-174.546	480.105	1036.201	-374.582	522.988	1014.832	-390.905	571.569	1033.968	-379.796	314.440	795.634	-206.308	310.576	790.835	-315.188	323.273	662.240	-319.155	325.992	529.126	-277.568	308.145	437.461	-267.918	288.709	326.772	-274.546	306.027	438.368	-352.110	293.731	318.916	-359.118	294.911	113.928	-314.054	337.662	37.553	-391.017	252.213	34.155	-201.097	350.838	55.932	-91.501	708.081	792.871	-170.121	700.658	661.515	-183.675	752.631	810.873	-265.564	735.395	678.615	-295.942	710.903	531.569	-294.980	717.156	426.595	-272.910	740.146	445.369	-365.421	748.031	329.660	-379.914	753.333	115.567	-331.433	706.840	36.019	-416.503	801.742	39.296	-230.986	712.809	57.826	-120.681
87	0.86000	409.549	1564.904	-298.787	678.486	1568.292	-288.174	508.145	1507.210	-190.919	564.951	1508.615	-188.520	203.641	1570.881	-315.924	116.130	1598.032	-364.082	111.294	1582.782	-212.709	99.881	1562.670	-98.604	859.714	1542.567	-311.614	981.072	1541.425	-325.104	993.033	1567.550	-182.391	992.038	1572.706	-71.518	407.589	1021.851	-159.846	663.435	1011.437	-174.738	480.119	1036.071	-374.637	522.992	1014.651	-390.916	571.534	1033.846	-379.851	314.436	795.526	-206.327	310.586	790.780	-315.197	323.252	662.158	-319.151	325.996	529.072	-277.570	308.251	437.418	-267.888	288.696	326.746	-274.531	306.037	438.314	-352.111	293.776	318.808	-359.147	294.875	113.835	-314.054	337.639	37.471	-391.015	252.187	34.090	-201.102	350.834	55.811	-91.517	708.310	792.972	-170.234	700.679	661.478	-183.776	752.482	810.708	-265.731	735.381	678.514	-296.034	710.902	531.423	-295.027	717.194	426.492	-272.959	740.230	445.287	-365.520	748.060	329.637	-379.939	753.272	115.472	-331.478	706.772	35.883	-416.496	801.775	39.233	-230.997	712.830	57.736	-120.684
